<svg width="65" height="64" viewBox="0 0 65 64" fill="none" xmlns="http://www.w3.org/2000/svg">
<path d="M32.8999 10.6667L27.3266 16.24L32.8999 21.8133M12.2866 8L8.8999 11.3867L21.5132 24H8.8999V40H19.5666L32.8999 53.3333V35.3867L44.2332 46.7467C42.4466 48.1067 40.4466 49.2267 38.2332 49.8667V55.3867C41.9132 54.5333 45.2466 52.8533 48.0466 50.56L53.5132 56L56.8999 52.6133L32.8999 28.6133M51.5666 32C51.5666 34.5067 51.0332 36.8533 50.1266 39.04L54.1532 43.0667C55.9545 39.6558 56.8973 35.8573 56.8999 32C56.8999 20.5867 48.8999 11.04 38.2332 8.61333V14.1067C45.9399 16.4 51.5666 23.5467 51.5666 32ZM44.8999 32C44.8999 27.28 42.2332 23.2267 38.2332 21.2533V27.1467L44.7666 33.68C44.8999 33.1467 44.8999 32.56 44.8999 32Z" fill="white"/>
</svg>
