<svg width="49" height="49" viewBox="0 0 49 49" fill="none" xmlns="http://www.w3.org/2000/svg">
<path d="M6.87775 12.3C9.82544 8.06644 14.2063 5.04334 19.2103 3.78963C24.2143 2.53591 29.503 3.13638 34.0985 5.48001C38.6941 7.82364 42.2856 11.7519 44.2092 16.5385C46.1328 21.3251 46.2582 26.6463 44.5623 31.5183C42.8664 36.3902 39.4639 40.4833 34.9839 43.0409C30.5039 45.5984 25.2493 46.4474 20.1918 45.4309C15.1343 44.4144 10.6159 41.601 7.47203 37.5111C4.32813 33.4211 2.7714 28.3312 3.08965 23.1824C3.10538 22.9648 3.07693 22.7464 3.00602 22.5401C2.9351 22.3339 2.82318 22.1441 2.677 21.9823C2.53082 21.8204 2.3534 21.6898 2.15542 21.5984C1.95744 21.5069 1.743 21.4564 1.525 21.45C1.15818 21.4441 0.802842 21.5779 0.530998 21.8242C0.259154 22.0706 0.091138 22.4111 0.0609999 22.7767C0.0243999 23.3461 0.00406667 23.9205 0 24.5C0.00095257 30.3158 2.07919 35.94 5.86016 40.359C9.64113 44.778 14.8762 47.7012 20.6218 48.6017C26.3675 49.5022 32.2458 48.3209 37.1975 45.2706C42.1491 42.2203 45.8485 37.5016 47.6287 31.965C49.409 26.4284 49.1531 20.438 46.9072 15.0734C44.6613 9.70872 40.5731 5.3227 35.3793 2.70575C30.1856 0.0888046 24.2279 -0.58696 18.58 0.800248C12.9321 2.18746 7.96538 5.5464 4.575 10.2717V4.67497C4.575 4.27052 4.41433 3.88263 4.12834 3.59664C3.84234 3.31064 3.45445 3.14997 3.05 3.14997C2.64554 3.14997 2.25766 3.31064 1.97166 3.59664C1.68567 3.88263 1.525 4.27052 1.525 4.67497V13.825C1.525 14.2294 1.68567 14.6173 1.97166 14.9033C2.25766 15.1893 2.64554 15.35 3.05 15.35H12.2C12.6045 15.35 12.9923 15.1893 13.2783 14.9033C13.5643 14.6173 13.725 14.2294 13.725 13.825C13.725 13.4205 13.5643 13.0326 13.2783 12.7466C12.9923 12.4606 12.6045 12.3 12.2 12.3H6.87775ZM18.3 17.6405C18.3009 17.1086 18.441 16.5861 18.7062 16.125C18.9715 15.6638 19.3527 15.2801 19.8121 15.0119C20.2715 14.7437 20.793 14.6002 21.325 14.5959C21.8569 14.5915 22.3808 14.7264 22.8445 14.987L35.0384 21.8495C35.5092 22.1151 35.901 22.501 36.1737 22.9678C36.4463 23.4346 36.59 23.9655 36.59 24.5061C36.59 25.0467 36.4463 25.5775 36.1737 26.0443C35.901 26.5111 35.5092 26.8971 35.0384 27.1626L22.8475 34.0251C22.384 34.2864 21.8601 34.4219 21.3279 34.418C20.7958 34.4142 20.2739 34.2712 19.8142 34.0032C19.3544 33.7352 18.9728 33.3516 18.7071 32.8905C18.4415 32.4294 18.3011 31.9068 18.3 31.3747V17.6405ZM33.5408 24.5061L21.35 17.6436V31.3686L33.5408 24.5061Z" fill="white"/>
</svg>
